<svg viewBox="0 0 360 360" version="1.1" xmlns="http://www.w3.org/2000/svg" xmlns:xlink="http://www.w3.org/1999/xlink">
	<g id="画板备份-2" stroke="none" stroke-width="1" fill="white" fill-rule="evenodd" fill-opacity="0.24">
		<path
			d="M212.812345,216 C219.589589,216 222.994424,212.627591 222.994424,205.947628 L222.994424,173.131499 C222.994424,166.451536 219.589589,163.079127 212.812345,163.079127 L205.775684,163.079127 L203.862491,152.410642 C202.695119,145.860387 198.771451,143.071665 192.091488,144.271464 L145.526308,152.507923 C138.813918,153.675295 136.122477,157.534109 137.257422,164.149218 L142.932148,196.478943 C144.067093,203.061625 147.990761,205.785493 154.703151,204.585694 L155.351691,204.488413 L155.351691,205.947628 C155.351691,212.627591 158.724099,216 165.533771,216 L212.812345,216 Z M148.023188,195.279143 L142.445743,163.500678 C141.862057,160.22555 143.321272,158.182649 146.531545,157.598963 L192.93459,149.427358 C196.08001,148.876099 198.187765,150.27046 198.771451,153.578014 L200.457656,163.079127 L165.533771,163.079127 C158.724099,163.079127 155.351691,166.419109 155.351691,173.131499 L155.351691,199.170384 L153.892476,199.4298 C150.714629,200.013486 148.639301,198.586698 148.023188,195.279143 Z M160.572439,201.92668 L160.572439,173.423342 C160.572439,170.050933 162.355924,168.299875 165.598625,168.299875 L212.747491,168.299875 C215.957764,168.299875 217.773677,170.050933 217.773677,173.423342 L217.773677,199.202811 L206.0351,188.112775 C204.640739,186.815695 202.954535,186.167155 201.235904,186.167155 C199.452418,186.167155 197.895922,186.783268 196.40428,188.080348 L182.039116,200.856588 L176.267109,195.668268 C174.905175,194.468468 173.44596,193.819928 171.921891,193.819928 C170.527529,193.819928 169.165595,194.436041 167.836088,195.635841 L160.572439,201.92668 Z M176.785941,188.92345 C180.936598,188.92345 184.309007,185.518615 184.309007,181.335531 C184.309007,177.217301 180.936598,173.780039 176.785941,173.780039 C172.635285,173.780039 169.230449,177.217301 169.230449,181.335531 C169.230449,185.518615 172.635285,188.92345 176.785941,188.92345 Z" />
	</g>
</svg>