<?xml version="1.0" standalone="no"?><!DOCTYPE svg PUBLIC "-//W3C//DTD SVG 1.1//EN" "http://www.w3.org/Graphics/SVG/1.1/DTD/svg11.dtd"><svg t="1614006178738" class="icon" viewBox="0 0 1024 1024" version="1.1" xmlns="http://www.w3.org/2000/svg" p-id="3925" xmlns:xlink="http://www.w3.org/1999/xlink" width="200" height="200"><defs><style type="text/css"></style></defs><path d="M682.666667 972.8H341.333333c-58.026667 0-102.4-44.373333-102.4-102.4v-648.533333c0-58.026667 44.373333-102.4 102.4-102.4h68.266667V68.266667c0-10.24 6.826667-17.066667 17.066667-17.066667h170.666666c10.24 0 17.066667 6.826667 17.066667 17.066667v51.2h68.266667c58.026667 0 102.4 44.373333 102.4 102.4v648.533333c0 58.026667-44.373333 102.4-102.4 102.4z m-341.333334-819.2c-37.546667 0-68.266667 30.72-68.266666 68.266667v648.533333c0 37.546667 30.72 68.266667 68.266666 68.266667h341.333334c37.546667 0 68.266667-30.72 68.266666-68.266667v-648.533333c0-37.546667-30.72-68.266667-68.266666-68.266667h-85.333334c-10.24 0-17.066667-6.826667-17.066666-17.066667V85.333333h-136.533334V136.533333c0 10.24-6.826667 17.066667-17.066666 17.066667H341.333333z" fill="" p-id="3926"></path><path d="M631.466667 836.266667h-238.933334c-10.24 0-17.066667-6.826667-17.066666-17.066667s6.826667-17.066667 17.066666-17.066667h238.933334c10.24 0 17.066667 6.826667 17.066666 17.066667s-6.826667 17.066667-17.066666 17.066667zM631.466667 699.733333h-238.933334c-10.24 0-17.066667-6.826667-17.066666-17.066666s6.826667-17.066667 17.066666-17.066667h238.933334c10.24 0 17.066667 6.826667 17.066666 17.066667s-6.826667 17.066667-17.066666 17.066666zM631.466667 563.2h-238.933334c-10.24 0-17.066667-6.826667-17.066666-17.066667s6.826667-17.066667 17.066666-17.066666h238.933334c10.24 0 17.066667 6.826667 17.066666 17.066666s-6.826667 17.066667-17.066666 17.066667z" fill="" p-id="3927"></path></svg>